PathFileType	4	(X/Y/Z)	D:\TRACE\v60_Jaco2_6-2-23\JustBodyDRS_Motion2_1-v60.trc
DataRate	CameraRate	NumFrames	NumMarkers	Units	OrigDataRate	OrigDataStartFrame	OrigNumFrames
100.00	100.00	      24	9	mm	100.00	4381	      7009
Frame#	Time	front left toe			Front right toe			aft left toe			aft right toe			Arm			FL body			FR body			AL Body			AR Body			
		X1	Y1	Z1	X2	Y2	Z2	X3	Y3	Z3	X4	Y4	Z4	X5	Y5	Z5	X6	Y6	Z6	X7	Y7	Z7	X8	Y8	Z8	X9	Y9	Z9	

4381	43.800	-290.36588	49.31189	-295.90109	124.05642	-1.36298	-311.11966	-208.38309	28.22165	343.68393	109.81894	49.09638	314.31714	-202.32883	1199.82520	-425.54309	-172.46867	567.92889	-425.28299	-12.99917	569.05579	-434.04120	-121.01651	561.66284	519.31616	34.93350	555.96759	511.09564	
4382	43.810	-292.34848	42.17590	-296.36932	123.74966	-1.92996	-311.43173	-208.63922	28.67052	343.40118	107.99641	42.62165	314.09659	-202.91170	1199.12244	-428.30991	-173.11362	567.05609	-426.60168	-13.90764	568.11389	-435.10794	-123.10484	562.21698	518.00690	33.28805	556.61798	510.04272	
4383	43.820	-294.59042	35.91468	-297.19846	123.56114	-2.37475	-311.62732	-208.69762	29.20635	343.08838	106.01038	36.86464	313.37634	-203.42281	1198.75391	-430.66467	-174.87129	566.80188	-428.33258	-14.35928	567.43109	-436.78754	-125.01645	562.87421	516.66559	31.68465	557.30090	509.74167	
4384	43.830	-296.19870	29.06051	-297.99716	123.35802	-2.88758	-311.72089	-209.06116	29.87015	342.91223	105.59766	36.35758	310.68912	-203.88805	1198.17126	-432.95139	-175.44165	566.16455	-429.65887	-15.23135	566.63202	-437.93750	-126.36750	563.86078	515.14880	29.62129	557.97241	507.93576	
4385	43.840	-297.83081	22.12862	-299.26309	123.18140	-3.29444	-311.70676	-209.12019	30.13303	342.61163	105.85981	34.26440	309.59265	-204.66684	1197.36926	-435.96667	-175.99709	564.95270	-431.00146	-15.31010	565.87634	-439.43576	-128.98792	565.19922	513.72266	27.19874	559.56122	506.73712	
4386	43.850	-298.87491	14.79806	-300.47421	123.07178	-3.67321	-311.68301	-209.06587	30.63148	342.27301	106.64404	35.57044	310.17960	-205.24216	1196.50391	-438.39697	-176.87123	563.54108	-432.61804	-16.64581	564.76324	-440.84293	-131.36533	567.18372	512.08221	24.70672	561.79327	505.52057	
4387	43.860	-299.02689	7.13127	-301.11777	122.92807	-4.06110	-312.16873	-209.10135	31.03329	341.92279	106.17868	37.04645	309.94351	-206.63225	1195.91577	-441.82434	-177.48393	562.06464	-434.34647	-17.98690	563.47937	-441.91193	-133.99614	569.25940	510.42349	22.45563	564.02832	503.96506	
4388	43.870	-299.36337	-3.36784	-302.33423	122.96501	-4.28923	-312.08963	-209.02960	31.48600	341.63895	106.00121	37.87988	310.38672	-208.75940	1194.93445	-446.56299	-178.87158	561.57800	-436.28470	-18.87591	562.71313	-443.42667	-135.67976	570.79126	508.85687	20.65312	565.56317	502.68561	
4389	43.880	-301.97491	-5.17192	-305.18158	122.63293	-4.66798	-312.20065	-209.64641	32.30643	340.83267	105.72828	38.27815	310.27701	-211.31700	1193.49072	-450.86093	-179.11525	562.28333	-437.67154	-19.43992	562.79797	-444.53357	-137.83890	571.77295	507.47629	18.62838	566.14954	501.49390	
4390	43.890	-303.09006	-4.31396	-303.21667	121.91059	-3.94352	-313.41714	-209.43666	32.93422	340.36401	105.47599	38.74858	309.65045	-213.67947	1192.04041	-454.84171	-179.36156	563.79639	-439.04449	-19.44609	564.08875	-446.21646	-139.67812	572.93677	505.95062	16.29153	566.80615	499.98511	
4391	43.900	-301.11234	-5.62273	-304.44632	117.21957	-1.29426	-311.17026	-209.86185	37.23509	340.33234	105.14807	38.06351	308.78827	-214.01387	1192.03638	-456.29700	-180.30109	564.64868	-440.89340	-20.81666	565.21423	-447.36853	-142.40381	573.32275	504.23404	13.87388	567.88562	498.52686	
4392	43.910	-300.69775	-5.41975	-305.45261	112.96159	4.28442	-308.33047	-207.36360	41.06826	342.46252	105.12510	38.38811	308.00427	-213.17453	1194.08118	-457.64383	-180.83885	564.35382	-442.48468	-20.86169	565.53607	-449.35519	-144.62437	574.48047	502.63144	11.68575	569.69293	496.98926	
4393	43.920	-300.48605	-6.41352	-304.96790	110.23437	13.80459	-306.65778	-205.03638	52.29314	342.25269	105.78274	39.22139	308.00110	-211.62285	1196.78809	-458.18198	-182.32880	563.86926	-444.46451	-21.73313	564.93097	-450.58743	-145.89124	576.22327	500.85938	9.99862	571.36993	495.51755	
4394	43.930	-300.03842	-6.66405	-305.62515	109.46090	24.95588	-306.14200	-203.94006	62.35577	343.02713	105.94250	39.35034	307.73215	-211.19011	1198.25952	-459.13898	-182.18982	562.70142	-445.25421	-22.64534	564.13739	-451.85574	-147.62531	577.59229	499.72156	8.47192	572.65790	494.43561	
4395	43.940	-299.66318	-7.24366	-305.35138	108.74473	37.19226	-307.18271	-206.19873	76.48454	340.96472	106.23437	39.48626	307.66898	-211.69633	1197.77405	-460.71854	-182.96716	561.95605	-446.00266	-23.26479	563.45947	-452.38522	-149.28677	578.58044	499.18777	6.36275	573.37305	493.36365	
4396	43.950	-299.49014	-7.73734	-305.53760	108.52948	50.90797	-309.35056	-211.09576	88.49567	339.21146	106.79917	39.74271	307.38724	-213.98486	1195.58264	-463.34091	-184.86089	562.01233	-447.02441	-24.38259	563.01727	-453.15692	-150.47488	579.08789	498.80289	7.77791	574.21210	496.74301	
4397	43.960	-298.97769	-8.33718	-305.65967	107.95877	64.84563	-311.50684	-218.12065	102.93192	335.14731	107.32697	40.08092	307.27060	-215.64766	1193.07153	-466.04276	-185.82230	561.43781	-447.60645	-25.14547	562.30817	-453.45862	-150.66838	579.76300	498.90237	5.48095	573.92444	493.53094	
4398	43.970	-299.03503	-8.79060	-305.67395	106.60163	78.08344	-313.71671	-225.94008	116.64092	331.99338	107.75671	40.38511	307.14771	-217.35547	1191.09497	-468.01749	-186.22798	560.71033	-447.76965	-26.22043	561.32898	-454.11475	-150.43990	579.60217	497.43991	5.27224	574.25793	492.96091	
4399	43.980	-299.12747	-9.63212	-305.79660	104.18221	90.59846	-315.49246	-232.29587	129.99443	329.19815	107.85629	40.54809	306.93307	-218.66028	1190.11316	-469.16776	-186.75105	559.34863	-448.06454	-27.04289	560.21826	-454.69202	-150.81448	580.06763	496.82953	4.33733	575.02356	492.45074	
4400	43.990	-298.73694	-10.04811	-305.92120	100.89055	102.33794	-316.85129	-236.74593	142.42274	327.36145	108.31351	40.94764	306.63483	-220.03197	1189.43457	-470.91879	-188.17400	558.48206	-448.66736	-28.16261	559.05310	-454.72421	-150.93164	580.47247	496.47220	3.99411	575.50238	491.93213	
4401	44.000	-298.16397	-10.45149	-305.79202	97.88076	113.05619	-318.22781	-240.18762	154.23044	325.82004	108.65016	41.23874	306.56326	-220.27307	1189.15405	-470.45624	-189.41470	557.24774	-449.05817	-29.11299	558.08063	-455.27039	-152.08597	581.43353	496.01315	3.21302	576.62415	491.43448	
4402	44.010	-297.73059	-10.61296	-305.74033	95.69511	120.93580	-319.00061	-243.12543	163.17268	324.64899	109.32555	41.43701	306.46249	-220.89471	1188.86584	-471.64450	-189.27618	556.00311	-448.77838	-28.84504	557.01233	-455.76291	-152.06296	581.87946	496.16357	2.53214	577.37909	490.95056	
4403	44.020	-297.19928	-10.79998	-305.83435	92.89401	126.31149	-319.62082	-247.16464	170.25818	323.46109	109.98727	41.72330	306.29666	-221.12872	1188.10547	-472.83417	-190.38277	555.14606	-448.87399	-30.28749	555.93243	-455.59778	-152.81778	583.32031	495.75449	2.05639	577.94934	490.82123	
4404	44.030	-296.94849	-10.95757	-305.71002	90.56123	129.35910	-319.61853	-250.76186	173.68440	322.83957	110.58825	42.03812	306.17502	-221.05101	1186.57422	-474.65491	-191.13338	554.24640	-448.71783	-31.68481	554.95435	-455.45596	-152.87184	583.79541	495.83020	1.99445	578.79395	491.05862	
